#N canvas 0 1112 1366 667 10;
#X obj 51 500 delwrite~ \$0-chorus 2000;
#X obj 438 395 vd~ \$0-chorus;
#X msg 479 279 0;
#X obj 438 276 osc~ 0.5;
#X obj 438 367 *~;
#X obj 438 306 +~ 2;
#X obj 108 396 vd~ \$0-chorus;
#X msg 153 246 0.35;
#X obj 108 275 osc~ 0.2;
#X obj 108 304 +~ 2;
#X obj 108 366 *~;
#X obj 199 112 vsl 12 50 0.01 5 0 0 empty empty speed -8 -9 1 10 #fcfcfc #000000 #000000 0 1;
#X obj 51 427 inlet~;
#X obj 142 200 s \$0-speed;
#X obj 108 148 r \$0-speed;
#X obj 438 220 r \$0-speed;
#X obj 230 112 vsl 12 50 0 5 0 0 empty empty depth -8 -9 1 10 #fcfcfc #000000 #000000 0 1;
#X obj 173 178 s \$0-depth;
#X obj 139 343 r \$0-depth;
#X obj 469 344 r \$0-depth;
#X obj 333 397 vd~ \$0-chorus;
#X obj 333 278 osc~ 0.5;
#X obj 333 335 *~ 2;
#X obj 333 366 *~;
#X obj 333 307 +~ 2;
#X obj 333 220 r \$0-speed;
#X obj 364 346 r \$0-depth;
#X msg 378 248 0.75;
#X obj 108 331 *~ 2;
#X obj 438 334 *~ 2;
#X obj 218 395 vd~ \$0-chorus;
#X obj 218 276 osc~ 0.5;
#X obj 218 333 *~ 2;
#X obj 218 364 *~;
#X obj 218 305 +~ 2;
#X obj 218 218 r \$0-speed;
#X obj 249 344 r \$0-depth;
#X msg 263 246 0.65;
#X obj 333 248 * 0.3;
#X obj 218 246 * 0.2;
#X obj 227 501 outlet~;
#X obj 318 501 outlet~;
#X text 102 153 chorus;
#X obj 287 125 loadbang;
#X obj 140 24 inlet;
#X obj 209 23 inlet;
#X obj 108 427 *~ 0.5;
#X obj 218 427 *~ 0.5;
#X obj 333 430 *~ 0.5;
#X obj 438 427 *~ 0.5;
#X floatatom 105 110 5 0 0 1 Speed - - 0;
#X floatatom 104 135 5 0 0 1 Depth - - 0;
#X obj 206 80 r \$0-speed;
#X obj 256 98 r \$0-depth;
#X connect 1 0 49 0;
#X connect 2 0 3 1;
#X connect 3 0 5 0;
#X connect 4 0 1 0;
#X connect 5 0 29 0;
#X connect 6 0 46 0;
#X connect 7 0 8 1;
#X connect 8 0 9 0;
#X connect 9 0 28 0;
#X connect 10 0 6 0;
#X connect 11 0 13 0;
#X connect 11 0 50 0;
#X connect 12 0 0 0;
#X connect 12 0 40 0;
#X connect 12 0 41 0;
#X connect 14 0 8 0;
#X connect 15 0 3 0;
#X connect 16 0 17 0;
#X connect 16 0 51 0;
#X connect 18 0 10 1;
#X connect 19 0 4 1;
#X connect 20 0 48 0;
#X connect 21 0 24 0;
#X connect 22 0 23 0;
#X connect 23 0 20 0;
#X connect 24 0 22 0;
#X connect 25 0 38 0;
#X connect 26 0 23 1;
#X connect 27 0 21 1;
#X connect 28 0 10 0;
#X connect 29 0 4 0;
#X connect 30 0 47 0;
#X connect 31 0 34 0;
#X connect 32 0 33 0;
#X connect 33 0 30 0;
#X connect 34 0 32 0;
#X connect 35 0 39 0;
#X connect 36 0 33 1;
#X connect 37 0 31 1;
#X connect 38 0 21 0;
#X connect 39 0 31 0;
#X connect 43 0 7 0;
#X connect 43 0 2 0;
#X connect 43 0 27 0;
#X connect 43 0 37 0;
#X connect 44 0 11 0;
#X connect 45 0 16 0;
#X connect 46 0 40 0;
#X connect 47 0 40 0;
#X connect 48 0 41 0;
#X connect 49 0 41 0;
#X coords 0 -1 1 1 150 70 2 100 100;
